<?xml version="1.0" encoding="UTF-8" standalone="no"?>
<svg
   xmlns:dc="http://purl.org/dc/elements/1.1/"
   xmlns:cc="http://creativecommons.org/ns#"
   xmlns:rdf="http://www.w3.org/1999/02/22-rdf-syntax-ns#"
   xmlns:svg="http://www.w3.org/2000/svg"
   xmlns="http://www.w3.org/2000/svg"
   xmlns:sodipodi="http://sodipodi.sourceforge.net/DTD/sodipodi-0.dtd"
   xmlns:inkscape="http://www.inkscape.org/namespaces/inkscape"
   height="584"
   viewBox="0 -110 438 437"
   width="584"
   version="1.1"
   id="svg4"
   sodipodi:docname="small.svg"
   inkscape:version="0.92.4 (5da689c313, 2019-01-14)">
  <metadata
     id="metadata10">
    <rdf:RDF>
      <cc:Work
         rdf:about="">
        <dc:format>image/svg+xml</dc:format>
        <dc:type
           rdf:resource="http://purl.org/dc/dcmitype/StillImage" />
      </cc:Work>
    </rdf:RDF>
  </metadata>
  <defs
     id="defs8" />
  <sodipodi:namedview
     pagecolor="#ffffff"
     bordercolor="#666666"
     borderopacity="1"
     objecttolerance="10"
     gridtolerance="10"
     guidetolerance="10"
     inkscape:pageopacity="0"
     inkscape:pageshadow="2"
     inkscape:window-width="640"
     inkscape:window-height="480"
     id="namedview6"
     showgrid="false"
     inkscape:zoom="0.40410959"
     inkscape:cx="165.02365"
     inkscape:cy="218.74094"
     inkscape:window-x="0"
     inkscape:window-y="0"
     inkscape:window-maximized="0"
     inkscape:current-layer="svg4" />
  <path
     d="m 185.67509,245.41135 h 207.0905 v 110.9506 H 185.67509 Z M 546.81195,215.23594 H 532.44424 V 378.8525 h 14.36771 c 16.60339,-0.0228 30.06212,-14.6472 30.07788,-32.70132 v -98.22391 c -0.021,-18.04841 -13.47974,-32.67276 -30.07788,-32.6899 z m -70.71678,-69.1851 h -57.05839 v 309.67162 h 57.05839 c 16.60339,-0.0229 30.06212,-14.6472 30.07788,-32.69562 V 178.74646 c -0.0158,-18.04842 -13.47449,-32.67277 -30.07788,-32.69562 z M 72.267628,178.74646 v 244.28038 c 0.01576,18.04842 13.474492,32.67848 30.077882,32.69562 H 159.4039 V 146.05084 h -57.05839 c -16.60339,0.0229 -30.062119,14.6472 -30.077882,32.69562 z M 1.5508485,247.93298 v 98.21677 C 1.5666112,364.20387 15.02534,378.82823 31.62873,378.85107 H 45.996442 V 215.23594 H 31.62873 c -16.60339,0.0171 -30.0568646,14.6472 -30.0778815,32.69704 z m 0,0"
     id="path2"
     inkscape:connector-curvature="0"
     style="stroke-width:1.36952758" />
</svg>
