<svg height="584" viewBox="0 -110 438 437" width="584" xmlns="http://www.w3.org/2000/svg"><path d="M140.172 70.086h157.656v77.703H140.172zm274.93-21.133h-10.938V163.54h10.938c12.64-.016 22.886-10.258 22.898-22.902v-68.79c-.016-12.64-10.262-22.882-22.898-22.894zM361.266.5h-43.438v216.875h43.438c12.64-.016 22.886-10.258 22.898-22.898V23.398C384.152 10.758 373.906.516 361.266.5zM53.836 23.398v171.079c.012 12.64 10.258 22.886 22.898 22.898h43.438V.5H76.734c-12.64.016-22.886 10.258-22.898 22.898zM0 71.852v68.785c.012 12.644 10.258 22.886 22.898 22.902h10.938V48.953H22.898C10.258 48.965.016 59.211 0 71.852zm0 0"/></svg>