<?xml version="1.0" standalone="no"?>
<!DOCTYPE svg PUBLIC "-//W3C//DTD SVG 20010904//EN"
 "http://www.w3.org/TR/2001/REC-SVG-20010904/DTD/svg10.dtd">
<svg version="1.0" xmlns="http://www.w3.org/2000/svg"
 width="271.000000pt" height="268.000000pt" viewBox="0 0 271.000000 268.000000"
 preserveAspectRatio="xMidYMid meet">
<metadata>
Created by potrace 1.15, written by Peter Selinger 2001-2017
</metadata>
<g transform="translate(0.000000,268.000000) scale(0.100000,-0.100000)"
fill="#000000" stroke="none">
<path d="M1898 2505 c-84 -23 -142 -57 -209 -124 -146 -147 -177 -339 -84
-528 56 -112 155 -194 284 -232 l53 -16 0 -65 0 -65 -45 -3 c-36 -2 -51 -9
-67 -29 -25 -32 -25 -44 0 -76 16 -20 31 -27 67 -29 l45 -3 0 -65 0 -65 -838
-2 -839 -3 -17 -21 c-15 -18 -18 -43 -18 -175 0 -207 -14 -194 215 -194 l175
0 0 -200 0 -200 -44 0 c-36 0 -48 -5 -65 -26 -26 -33 -26 -45 0 -78 l20 -26
159 0 159 0 20 26 c26 33 26 45 1 77 -16 20 -31 27 -67 29 l-45 3 0 65 0 65
592 0 592 0 0 -65 0 -65 -45 -3 c-36 -2 -51 -9 -67 -29 -25 -32 -25 -44 1 -77
l20 -26 159 0 159 0 20 26 c12 15 21 32 21 39 0 7 -9 24 -21 39 -17 21 -29 26
-65 26 l-44 0 0 200 0 200 175 0 c229 0 215 -12 215 193 0 211 15 197 -211
197 l-179 0 0 204 0 204 48 12 c156 39 295 182 331 341 24 103 5 230 -49 323
-35 61 -118 144 -180 179 -92 53 -230 70 -332 42z m165 -256 c43 -11 101 -59
122 -98 38 -74 26 -158 -32 -222 -101 -112 -286 -69 -329 77 -14 49 -14 59 0
107 18 61 64 112 122 132 48 17 68 18 117 4z m-119 -1507 l1 -62 -595 0 -595
0 2 62 c1 35 2 64 2 66 1 1 267 1 592 0 l591 -3 2 -63z"/>
</g>
</svg>
